/vscmnt/brussel_pixiu_data/_data_brussel/112/vsc11236/PredSimResults/SUBJ11_Falisse2022/weightedWalking/worker_05.mot
version=1
nRows=4
nColumns=124
inDegrees=yes
endheader
                time	         pelvis_tilt	         pelvis_list	     pelvis_rotation	           pelvis_tx	           pelvis_ty	           pelvis_tz	       hip_flexion_r	     hip_adduction_r	      hip_rotation_r	        knee_angle_r	       ankle_angle_r	    subtalar_angle_r	         mtp_angle_r	       hip_flexion_l	     hip_adduction_l	      hip_rotation_l	        knee_angle_l	       ankle_angle_l	    subtalar_angle_l	         mtp_angle_l	    lumbar_extension	      lumbar_bending	     lumbar_rotation	          arm_flex_r	           arm_add_r	           arm_rot_r	        elbow_flex_r	          arm_flex_l	           arm_add_l	           arm_rot_l	        elbow_flex_l	glut_med1_r/activation	glut_med2_r/activation	glut_med3_r/activation	glut_min1_r/activation	glut_min2_r/activation	glut_min3_r/activation	semimem_r/activation	semiten_r/activation	bifemlh_r/activation	bifemsh_r/activation	    sar_r/activation	add_long_r/activation	add_brev_r/activation	add_mag1_r/activation	add_mag2_r/activation	add_mag3_r/activation	    tfl_r/activation	   pect_r/activation	   grac_r/activation	glut_max1_r/activation	glut_max2_r/activation	glut_max3_r/activation	iliacus_r/activation	  psoas_r/activation	quad_fem_r/activation	    gem_r/activation	   peri_r/activation	rect_fem_r/activation	vas_med_r/activation	vas_int_r/activation	vas_lat_r/activation	med_gas_r/activation	lat_gas_r/activation	 soleus_r/activation	tib_post_r/activation	flex_dig_r/activation	flex_hal_r/activation	tib_ant_r/activation	per_brev_r/activation	per_long_r/activation	per_tert_r/activation	ext_dig_r/activation	ext_hal_r/activation	glut_med1_l/activation	glut_med2_l/activation	glut_med3_l/activation	glut_min1_l/activation	glut_min2_l/activation	glut_min3_l/activation	semimem_l/activation	semiten_l/activation	bifemlh_l/activation	bifemsh_l/activation	    sar_l/activation	add_long_l/activation	add_brev_l/activation	add_mag1_l/activation	add_mag2_l/activation	add_mag3_l/activation	    tfl_l/activation	   pect_l/activation	   grac_l/activation	glut_max1_l/activation	glut_max2_l/activation	glut_max3_l/activation	iliacus_l/activation	  psoas_l/activation	quad_fem_l/activation	    gem_l/activation	   peri_l/activation	rect_fem_l/activation	vas_med_l/activation	vas_int_l/activation	vas_lat_l/activation	med_gas_l/activation	lat_gas_l/activation	 soleus_l/activation	tib_post_l/activation	flex_dig_l/activation	flex_hal_l/activation	tib_ant_l/activation	per_brev_l/activation	per_long_l/activation	per_tert_l/activation	ext_dig_l/activation	ext_hal_l/activation	 ercspn_r/activation	 ercspn_l/activation	 intobl_r/activation	 intobl_l/activation	 extobl_r/activation	 extobl_l/activation	
          0.00000000	         -7.34421731	         -4.01052361	          2.12101043	          0.00000000	          0.94437932	         -0.00443885	         30.27799487	          5.13942968	          0.88057812	         -2.86310485	          7.24490408	         -7.28203807	          0.18531373	        -11.04874832	         -1.52768239	          8.49181364	         -4.78778738	          8.94935761	         -6.17329704	         26.64725246	         -0.41207416	          2.61529904	         -2.52188115	         -8.89475342	        -13.44977745	         19.36962336	         28.03399853	          5.80318452	        -13.46261485	         19.11816211	         62.05344170	          0.01000054	          0.01000046	          0.01000076	          0.01000127	          0.01000068	          0.01000068	          0.09749187	          0.01558313	          0.01231837	          0.01000009	          0.01347245	          0.03773865	          0.15045541	          0.17736002	          0.12928669	          0.05431173	          0.01000009	          0.01005505	          0.05406912	          0.01231799	          0.01648965	          0.07560754	          0.02302318	          0.02095058	          0.01507847	          0.13988441	          0.01231811	          0.01869114	          0.09573113	          0.09563283	          0.07482253	          0.01000001	          0.01000004	          0.01000000	          0.01288747	          0.01000172	          0.01099330	          0.38542032	          0.13355910	          0.09942612	          0.19496298	          0.38903729	          0.01697336	          0.19515811	          0.16409285	          0.15773411	          0.14493008	          0.19187050	          0.18577935	          0.01166695	          0.01000014	          0.01000008	          0.05724374	          0.09781771	          0.01092031	          0.01000028	          0.01000028	          0.01000060	          0.01000020	          0.21432525	          0.01069750	          0.01869240	          0.02303945	          0.01398894	          0.01000041	          0.32890161	          0.41475156	          0.04302893	          0.03451253	          0.17048573	          0.02329167	          0.01000021	          0.01000021	          0.01000021	          0.35400658	          0.43002438	          0.33007295	          0.27480898	          0.26052727	          0.24884713	          0.01869063	          0.01000115	          0.01191619	          0.01000022	          0.01059905	          0.01231665	          0.04690747	          0.01499888	          0.03747436	          0.01000002	          0.05904776	          0.01000001	
          0.01390814	         -7.34459730	         -4.19579550	          2.34281857	          0.01687257	          0.94296854	         -0.00413079	         29.38304718	          5.45359173	          1.26546791	         -2.67554576	          6.15477911	         -7.82556462	          0.19726564	        -11.02326950	         -1.69283830	          7.99114477	         -6.68363637	          8.95496797	         -5.67043190	         28.49892527	         -0.28510064	          3.00013882	         -2.60866180	         -9.88122703	        -13.45393409	         19.34349233	         26.74905566	          5.43141640	        -13.47359580	         19.04116342	         64.32024604	          0.01000003	          0.01000003	          0.01000003	          0.01000010	          0.01000008	          0.01000007	          0.07914573	          0.01265073	          0.01000031	          0.01000006	          0.01093727	          0.03063706	          0.12214269	          0.14398431	          0.10495744	          0.04409131	          0.01000052	          0.01521189	          0.07156206	          0.01000008	          0.01338664	          0.06137962	          0.01869067	          0.01700816	          0.09907132	          0.11356080	          0.01000012	          0.01517385	          0.07771637	          0.07763656	          0.06074238	          0.01800166	          0.01869046	          0.01517339	          0.01046230	          0.01517332	          0.01517350	          0.33285914	          0.14786142	          0.10167954	          0.15827469	          0.40425405	          0.01377932	          0.15843301	          0.13321364	          0.12805150	          0.11765701	          0.15576409	          0.15081916	          0.01000176	          0.01000072	          0.01045965	          0.04647155	          0.07941033	          0.01000011	          0.01000019	          0.01000055	          0.01000137	          0.01000052	          0.17399331	          0.01000034	          0.01517604	          0.01870592	          0.01868979	          0.01232131	          0.26700852	          0.35881444	          0.03493178	          0.02801825	          0.13840350	          0.02013594	          0.01000036	          0.01000035	          0.01000034	          0.30405730	          0.38659450	          0.32757831	          0.26614289	          0.25211387	          0.24731414	          0.01517341	          0.01000005	          0.01000002	          0.01000011	          0.01000003	          0.01000022	          0.03808038	          0.02414353	          0.03042239	          0.01231798	          0.04793607	          0.01000002	
          0.02781627	         -7.33960255	         -4.37183501	          2.55045999	          0.03400067	          0.94170129	         -0.00380524	         28.40276446	          5.72721283	          1.65984835	         -2.60401466	          5.10763463	         -8.37215521	          0.17703252	        -10.88477647	         -1.85111393	          7.46843466	         -8.79349208	          8.83386438	         -5.18757070	         30.34895115	         -0.14565770	          3.38211420	         -2.68465345	        -10.89175850	        -13.46390964	         19.32398989	         25.59455009	          4.98152730	        -13.48163694	         18.96169212	         66.53452489	          0.11615363	          0.12158896	          0.14704111	          0.02794654	          0.09692606	          0.09741235	          0.06425201	          0.03641033	          0.01956062	          0.04303485	          0.01232119	          0.02487177	          0.09915772	          0.11688918	          0.08520645	          0.03579418	          0.01001641	          0.01234983	          0.05809585	          0.06040176	          0.01890982	          0.04982914	          0.01517345	          0.01380758	          0.08042814	          0.09219085	          0.12112657	          0.01231843	          0.06309162	          0.06302684	          0.04931183	          0.01461409	          0.01517327	          0.01231804	          0.01231805	          0.01231806	          0.01231820	          0.47462889	          0.19228212	          0.11853953	          0.28514504	          0.47658207	          0.16246582	          0.17254922	          0.10814532	          0.10395459	          0.17842746	          0.12645225	          0.12243782	          0.01000266	          0.01000025	          0.01000013	          0.03772648	          0.06446686	          0.01215062	          0.01000042	          0.01000035	          0.01000074	          0.01000024	          0.14125114	          0.01868586	          0.01232047	          0.01518604	          0.01517285	          0.01000282	          0.21676254	          0.30159383	          0.02835828	          0.02274580	          0.11235855	          0.01634688	          0.01000019	          0.01000018	          0.01000019	          0.24683938	          0.32276593	          0.31219378	          0.25724254	          0.24575967	          0.24090896	          0.01231806	          0.01000015	          0.01000021	          0.01000014	          0.01000004	          0.01000021	          0.05398824	          0.02792644	          0.02587862	          0.01000000	          0.03891540	          0.01000001	
          0.04172441	         -7.33163278	         -4.53063182	          2.74419238	          0.05117183	          0.94071740	         -0.00343577	         27.35782431	          5.98105090	          2.03592835	         -2.42692025	          4.04309207	         -8.92965828	          0.15842664	        -10.59937806	         -2.00280958	          6.93899317	        -11.13920484	          8.55728699	         -4.70818848	         32.14187674	         -0.00724862	          3.74880491	         -2.75042963	        -11.88161393	        -13.46891686	         19.32018647	         24.55320970	          4.49958709	        -13.48778424	         18.89756085	         68.62838457	          0.18102212	          0.19544801	          0.22887359	          0.08162985	          0.08277964	          0.14732772	          0.05293144	          0.05286659	          0.03692806	          0.03493652	          0.01000270	          0.02019139	          0.08049810	          0.09489293	          0.06917249	          0.04479616	          0.01000026	          0.01002672	          0.04716376	          0.11676292	          0.06844028	          0.04055998	          0.01231811	          0.01120927	          0.06529335	          0.07484232	          0.14665506	          0.01000035	          0.05121906	          0.05116646	          0.04003236	          0.01186399	          0.01231796	          0.01000002	          0.01000005	          0.01000021	          0.01000025	          0.55144743	          0.20044120	          0.10963812	          0.40931457	          0.51410474	          0.20925737	          0.14007927	          0.08779439	          0.08439228	          0.16089645	          0.10265634	          0.09939732	          0.01004092	          0.01000056	          0.01000033	          0.03062707	          0.05233544	          0.01000045	          0.01000101	          0.01000088	          0.01000213	          0.01363862	          0.11467037	          0.01517767	          0.01000233	          0.01232854	          0.01231779	          0.01000047	          0.17597188	          0.24483956	          0.02302179	          0.01846553	          0.09121477	          0.01327074	          0.01000148	          0.01000138	          0.01000119	          0.20038880	          0.26202742	          0.28438661	          0.24729799	          0.23931606	          0.23083039	          0.01000005	          0.01518606	          0.01869046	          0.01000020	          0.01000005	          0.01000018	          0.06643166	          0.04912831	          0.02100876	          0.01000000	          0.03159225	          0.01000001	
